<svg height="54" viewBox="0 0 34 54" width="34" xmlns="http://www.w3.org/2000/svg"><path d="m28.1074 19.9239a16.48 16.48 0 0 0 -11.1391-3.8564 16.6761 16.6761 0 0 0 -11.0307 3.8251 13.7027 13.7027 0 0 1 11.03-5.6445l.0324-.001.0323.001a14.0385 14.0385 0 0 1 11.0751 5.6758zm5.8908 9.4515c-.0023-.1218-.0065-.2413-.0108-.3606l-2.124.1116c.003.2755.0011.4837.0119.6141.015.1851.0556.2291.2073.22s.2846-.0125.2846-.0125.003.6717.003 1.4453a.9184.9184 0 0 0 .1981.6441c-.0253-.0139-.046-.026-.073-.0407a1.76 1.76 0 0 0 -1.1136-.0838 4.2534 4.2534 0 0 0 -.8141.3451 3.233 3.233 0 0 1 -.448 2.1706c-.744 1.5126-4.4739 9.5192-6.3231 12.0837a5.6741 5.6741 0 0 1 -1.5548 1.6271 5.0642 5.0642 0 0 0 .1155.7407 1.6237 1.6237 0 0 0 1.2337 1.0973c1.5287.251 2.9509-1.6365 3.4964-2.4424s1.456-2.2649 3.36-5.7777c1.5994-2.9508 3.2484-6.5836 3.174-7.9225a2.8277 2.8277 0 0 0 -.375-1.236 1.37 1.37 0 0 0 -.3859-.3861.591.591 0 0 0 .1213.0163c.1532 0 .6206-.0991.6206-.8139s-.017-1.5324-.017-1.5324.0324-.0026.2305-.0119c.1517-.0071.1847-.087.1844-.3052-.0002-.057-.0002-.1206-.002-.1902zm-29.906-7.3471a14.8884 14.8884 0 0 0 .7553-1.8568c1.4854-3.0082 6.2274-6.7652 12.1194-6.7652l.0331-.001.0326.001c5.8922 0 10.634 3.757 12.12 6.7652a14.8563 14.8563 0 0 0 .755 1.8568 14.344 14.344 0 0 1 1.9274 6.2567l2.1047-.1106a16.2156 16.2156 0 0 0 -2.4042-7.5263 13.0512 13.0512 0 0 0 -.9392-1.1513 16.3879 16.3879 0 0 0 -13.5634-7.3915l-.0329.0008-.0326-.0008a16.3871 16.3871 0 0 0 -13.5636 7.3915 12.9711 12.9711 0 0 0 -.9394 1.1513 16.216 16.216 0 0 0 -2.4044 7.5277l2.1048.1105a14.3438 14.3438 0 0 1 1.9274-6.258zm7.2341 15.5937a54.4387 54.4387 0 0 0 -3.7722-6.4595 2.3354 2.3354 0 0 0 -2.7954-.5693 3.3356 3.3356 0 0 0 -.3614.3036c-.6509.767-.5552 1.667.056 2.91.744 1.5126 4.4739 9.5192 6.3231 12.0838.9176 1.2723 1.6491 2.0038 2.79 1.9046a1.5692 1.5692 0 0 0 .9562-.4324 2.6555 2.6555 0 0 0 .5359-1.6444 5.6731 5.6731 0 0 0 -.8431-2.4424c-.1243-.2483-2.418-4.6869-2.8891-5.654zm-1.185 8.89c-1.8492-2.5644-5.5793-10.571-6.3232-12.0836a3.2329 3.2329 0 0 1 -.4481-2.1706 4.2606 4.2606 0 0 0 -.8142-.3451 1.7974 1.7974 0 0 0 -1.08.072.9972.9972 0 0 0 .1532-.5915c0-.7737.003-1.4453.003-1.4453s.1332.0031.2849.0124.1921-.0346.2073-.22c.0106-.13.0088-.338.0117-.6129l-2.124-.1116c-.0044.119-.0086.238-.0108.3593-.0019.1 0 .1877.0012.2607.0034.1656.05.2284.1815.2345.198.0093.2306.0119.2306.0119s-.0173.8178-.0173 1.5327.4674.8139.6206.8139c.01 0 .0252-.0016.0391-.0027a1.3714 1.3714 0 0 0 -.3652.3725 2.832 2.832 0 0 0 -.3749 1.236c-.0745 1.3389 1.5746 4.9717 3.174 7.9225 1.9039 3.5128 2.8143 4.9717 3.36 5.7776s1.9676 2.6935 3.4963 2.4425a1.6233 1.6233 0 0 0 1.2335-1.0972 5.0376 5.0376 0 0 0 .1156-.7407 5.6728 5.6728 0 0 1 -1.5548-1.6272zm19.3433-12.7055c.6112-1.2427.7069-2.1427.056-2.91a3.3567 3.3567 0 0 0 -.3614-.3036 2.3357 2.3357 0 0 0 -2.7956.5693 54.4733 54.4733 0 0 0 -3.7721 6.4595c-.4712.9671-2.7649 5.4057-2.8888 5.6536a5.6762 5.6762 0 0 0 -.8431 2.4425 2.6543 2.6543 0 0 0 .5361 1.6444 1.5675 1.5675 0 0 0 .9561.4324c1.1408.0992 1.8721-.6322 2.79-1.9046 1.8488-2.5643 5.5789-10.5709 6.3228-12.0835z" fill="#1d1d1f"/><path d="m.0611 0h33.8777v54h-33.8777z" fill="none"/></svg>