<svg height="54" viewBox="0 0 38 54" width="38" xmlns="http://www.w3.org/2000/svg"><path d="m9 48.5869a1.5268 1.5268 0 0 0 1.3281 1.4131h1.5193a1.5936 1.5936 0 0 0 1.4026-1.6255v-8.999a11.226 11.226 0 0 1 -4.25.8181zm3.9619-23.0232a8.6642 8.6642 0 0 0 -4.781 1.36 11.746 11.746 0 0 0 -3.5592 3.0386 6.458 6.458 0 0 1 2.2524 1.0624 6.31 6.31 0 0 1 1.8168 1.8912 7.1067 7.1067 0 0 1 1.3068 3.1873 5.0788 5.0788 0 0 1 0 1.9124 3.7623 3.7623 0 0 1 -.2019.7543 12.4382 12.4382 0 0 0 3.58-.8393l.2975-.17a14.3231 14.3231 0 0 0 2.5287-1.9868l.1062-.1274a5.9306 5.9306 0 0 0 1.7-3.623 6.824 6.824 0 0 0 -1.2218-4.25c-1.6574-1.9974-3.06-2.21-3.8142-2.21zm2.32 4.5048-2.2948 1.6574a.9253.9253 0 0 1 -1.293-.1965v-.0053a1.0242 1.0242 0 0 1 .2018-1.3706l2.2524-1.668a.9769.9769 0 0 1 1.1336 1.583zm-6.177 6.3747a7.1563 7.1563 0 0 0 -1.4343-3.1874 5.98 5.98 0 0 0 -1.4662-1.6042 3.5468 3.5468 0 0 0 -1.6468-.68 2.4335 2.4335 0 0 0 -1.3705.17 4.6751 4.6751 0 0 0 -2.3151 2.39 5.0246 5.0246 0 0 0 -.3729 1.5937 4.1629 4.1629 0 0 0 .1381 1.2749 4.6023 4.6023 0 0 0 .2019.5737 6.3461 6.3461 0 0 0 .7224 1.2431 5.8736 5.8736 0 0 0 1.2644 1.36 4.3555 4.3555 0 0 0 2.9854.8606 4.058 4.058 0 0 0 1.6893-.4462 2.468 2.468 0 0 0 1.2006-1.0625 3.63 3.63 0 0 0 .4037-2.4649zm-5.053 2.3374a2.8455 2.8455 0 0 1 -1.8274-1.3387 2.843 2.843 0 0 1 -.5737-2.1249c.1487-.4887.7118-.4781 1.0624 0l1.7424 2.4011c.2667.4994.0648 1.105-.4026 1.0625zm24.9481 1.4024a11.2158 11.2158 0 0 1 -4.25-.8075v8.999a1.5936 1.5936 0 0 0 1.4038 1.6255h1.5192a1.5289 1.5289 0 0 0 1.327-1.3918zm-1.0624-2.1355a5.0663 5.0663 0 0 1 0-1.8593 7.0931 7.0931 0 0 1 1.3068-3.1873 6.2917 6.2917 0 0 1 1.8805-1.9762 6.458 6.458 0 0 1 2.2524-1.0624 11.7591 11.7591 0 0 0 -3.5592-3.0386 8.6638 8.6638 0 0 0 -4.7905-1.36c-.765 0-2.1249.2019-3.8355 2.21a6.8178 6.8178 0 0 0 -1.2218 4.25 5.9255 5.9255 0 0 0 1.7 3.623l.1063.1274a14.2437 14.2437 0 0 0 2.5286 1.9868l.2975.17a12.4276 12.4276 0 0 0 3.58.8393 3.7288 3.7288 0 0 1 -.2443-.7118zm-1.6165-6.5341a.9244.9244 0 0 1 -1.2911.2066l-2.3108-1.6511a.9745.9745 0 0 1 1.1208-1.5877l2.2524 1.6681a.9455.9455 0 0 1 .255 1.3068zm10.7748 2.0612a4.6866 4.6866 0 0 0 -2.2843-2.3587 2.436 2.436 0 0 0 -1.37-.17 3.5381 3.5381 0 0 0 -1.6468.68 5.95 5.95 0 0 0 -1.4667 1.6041 7.1338 7.1338 0 0 0 -1.4343 3.1874 3.6054 3.6054 0 0 0 .3825 2.4648 2.4585 2.4585 0 0 0 1.2005 1.0625 4.0373 4.0373 0 0 0 1.7106.3931 4.3561 4.3561 0 0 0 2.9748-.85 5.9032 5.9032 0 0 0 1.275-1.37 6.4359 6.4359 0 0 0 .7118-1.2431 4.9519 4.9519 0 0 0 .2019-.5737 4.1989 4.1989 0 0 0 .1487-1.275 4.8517 4.8517 0 0 0 -.4037-1.5514zm-1.3191 3.91a2.91 2.91 0 0 1 -1.8593 1.3387c-.4674 0-.6693-.5631-.3612-1.0625l1.7424-2.4008c.3081-.51.8712-.5206 1.0625 0a2.8525 2.8525 0 0 1 -.5844 2.1244z" fill="#1d1d1f"/><path d="m0 0h38v54h-38z" fill="none"/></svg>