<svg height="54" viewBox="0 0 32 54" width="32" xmlns="http://www.w3.org/2000/svg"><path d="m7.378 17.7111c-2.7408.1-4.6335 1.8665-6.2528 3.591-.7241.7711-.5481 1.34-.5481 2.9452 0 2.1727-.0472 2.4334.5732 3.3689a7.581 7.581 0 0 0 6.2277 3.626c4.1728.3217 7.7741-3.021 7.7741-6.7575s-3.5921-6.9262-7.7741-6.7736zm-3.798 8.8344a.687.687 0 1 1 -1.374 0v-4.0378a.687.687 0 0 1 1.374 0zm7.9835-2.0246a1.0406 1.0406 0 0 1 -1.0375 1.0375h-2.2437a1.04 1.04 0 0 1 -1.0374-1.0375v-.1288a1.04 1.04 0 0 1 1.0374-1.0374h2.2432a1.04 1.04 0 0 1 1.0375 1.0374zm-3.7735 8.1264a8.0054 8.0054 0 0 0 5.21-1.4322v16.9841a2.13 2.13 0 0 1 -1.9124 1.8008h-1.77a1.7357 1.7357 0 0 1 -1.5276-1.5442s.0132-15.7952 0-15.8085zm9.1138-8.1626c0 3.7365 3.6013 7.0792 7.7741 6.7575a7.581 7.581 0 0 0 6.2277-3.626c.62-.9355.5732-1.1962.5732-3.3689 0-1.6054.176-2.1741-.5481-2.9452-1.6193-1.7245-3.512-3.491-6.2528-3.591-4.1825-.1526-7.7742 3.0371-7.7742 6.7736zm11.3281-1.977a.687.687 0 0 1 1.374 0v4.0378a.687.687 0 1 1 -1.374 0zm-7.739 1.8844a1.04 1.04 0 0 1 1.0371-1.0374h2.2432a1.04 1.04 0 0 1 1.0374 1.0374v.1288a1.04 1.04 0 0 1 -1.0374 1.0375h-2.2432a1.0406 1.0406 0 0 1 -1.0375-1.0375zm3.66 24.0637c0 .7133-1.0606 1.5442-1.7871 1.5442h-1.77a1.8243 1.8243 0 0 1 -1.5958-1.8008v-16.9841a7.8467 7.8467 0 0 0 5.1526 1.4322c-.0034.0183 0 15.8085 0 15.8085z" fill="#1d1d1f"/><path d="m0 0h32v54h-32z" fill="none"/></svg>