<svg height="54" viewBox="0 0 34 54" width="34" xmlns="http://www.w3.org/2000/svg"><path d="m6.3483 40.1211.0054.0028c-.0073.0006-.0138-.0052-.0054-.0028zm.0086.0021-.0032.0007.0032.0038.0035.0094.0075-.0233-.0075.0073zm9.0657-8.3891a5.9767 5.9767 0 0 1 -1.7317 3.6623c-.0434.05-.0809.0925-.1128.13a13.83 13.83 0 0 1 -1.7974 1.5015l-.0027.0034-.0285.0194a8.459 8.459 0 0 1 -.7495.4893l-.3027.1687a11.3385 11.3385 0 0 1 -1.5476.6078l-.0385.0153a3.48 3.48 0 0 1 -.74.1636 4.6357 4.6357 0 0 1 -.5868.0605 13.0517 13.0517 0 0 1 -1.6254.0281 5.4952 5.4952 0 0 1 -2.9618-1.4119 5.9607 5.9607 0 0 1 -1.2968-1.3746 6.3828 6.3828 0 0 1 -.7316-1.2575 4.7608 4.7608 0 0 1 -.2042-.5763 4.6649 4.6649 0 0 1 -.2131-1.3307 3.3126 3.3126 0 0 1 .3863-1.9088 8.4621 8.4621 0 0 1 .6313-.9658c-.0117-.0018-.0266-.0071-.0381-.0087a12.1884 12.1884 0 0 1 3.7262-3.4062 8.928 8.928 0 0 1 4.8891-1.3748c.7767.0155 2.11.3948 3.83 2.4183a6.8478 6.8478 0 0 1 1.2463 4.3471zm-10.0893 3.1177a5.8274 5.8274 0 0 0 -.6141-1.1627 5.5084 5.5084 0 0 0 -.8621-.9741c-.4776-.3714-1.1653-.564-1.3153-.0683a2.86 2.86 0 0 0 .5882 2.1851 2.9063 2.9063 0 0 0 1.866 1.3595c.4774.0387.574-.7442.3373-1.3395zm7.5447-6.6747-.05-.0685a.9494.9494 0 0 0 -1.3228-.2055l-2.3052 1.6855a.9494.9494 0 0 0 -.2055 1.3228l.05.0684a.9493.9493 0 0 0 1.3228.2055l2.3052-1.6853a.9492.9492 0 0 0 .2055-1.3229zm-6.878 20.4082a1.5165 1.5165 0 0 0 1.4359 1.4147h1.6216a1.7068 1.7068 0 0 0 1.5025-1.65v-9.1145a12.7281 12.7281 0 0 1 -4.56.8237c-.0014.0328 0 8.1114 0 8.5261zm21.6463-8.4614c.0073.0006.0138-.0052.0054-.0028zm-.0067-.0028-.0075-.0073.0075.0233.0035-.0094.0032-.0038-.0032-.0007zm5.6089-7.4885a4.6649 4.6649 0 0 1 -.2131 1.3307 4.7608 4.7608 0 0 1 -.2042.5763 6.3828 6.3828 0 0 1 -.7312 1.2575 5.9607 5.9607 0 0 1 -1.2968 1.3746 5.4952 5.4952 0 0 1 -2.9618 1.4119 13.0517 13.0517 0 0 1 -1.6254-.0281 4.6357 4.6357 0 0 1 -.5868-.0605 3.48 3.48 0 0 1 -.74-.1636l-.0385-.0153a11.3385 11.3385 0 0 1 -1.5476-.6078l-.3031-.1683a8.459 8.459 0 0 1 -.7493-.4886l-.0285-.0194-.0027-.0034a13.83 13.83 0 0 1 -1.7974-1.5015c-.0319-.0378-.0694-.0807-.1128-.13a5.9767 5.9767 0 0 1 -1.7317-3.6623 6.8478 6.8478 0 0 1 1.2466-4.3475c1.72-2.0235 3.053-2.4028 3.83-2.4183a8.928 8.928 0 0 1 4.8891 1.3748 12.1884 12.1884 0 0 1 3.7262 3.4062c-.0115.0016-.0264.0069-.0381.0087a8.4621 8.4621 0 0 1 .6313.9658 3.3126 3.3126 0 0 1 .3858 1.9081zm-11.921-3.1326 2.3054 1.6855a.9493.9493 0 0 0 1.3228-.2055l.05-.0684a.9494.9494 0 0 0 -.2057-1.323l-2.3055-1.6855a.9494.9494 0 0 0 -1.3228.2055l-.05.0685a.9492.9492 0 0 0 .2058 1.3229zm10.1307 3.1469c-.15-.4957-.8377-.3031-1.3153.0683a5.5084 5.5084 0 0 0 -.8621.9741 5.8274 5.8274 0 0 0 -.6141 1.1627c-.2365.5953-.14 1.3785.3373 1.34a2.9063 2.9063 0 0 0 1.866-1.3602 2.86 2.86 0 0 0 .5882-2.1851zm-3.4582 7.4123a12.7281 12.7281 0 0 1 -4.56-.8237v9.1145a1.7068 1.7068 0 0 0 1.5025 1.65h1.6216a1.627 1.627 0 0 0 1.4359-1.4147z" fill="#1d1d1f"/><path d="m0 0h34v54h-34z" fill="none"/></svg>