<svg enable-background="new 0 0 32 54" height="54" viewBox="0 0 32 54" width="32" xmlns="http://www.w3.org/2000/svg"><path d="m25.1429 18h-18.2858c-3.7714 0-6.8571 3.0857-6.8571 6.8571v18.2857c0 3.7715 3.0857 6.8572 6.8571 6.8572h18.2857c3.7715 0 6.8572-3.0857 6.8572-6.8571v-18.2858c0-3.7714-3.0857-6.8571-6.8571-6.8571zm-2.3336 21.6593c-.0774.3413-.2185.6623-.4362.9515-.2169.2883-.495.5246-.8192.7017-.3281.1795-.6724.2817-1.0399.3503-.6899.1288-1.1621.1579-1.6056.0753-.4279-.0797-.7905-.2619-1.0804-.5081-.4296-.365-.6975-.8579-.756-1.3732-.0685-.6037.1485-1.2487.638-1.7239.247-.2398.5573-.4295.9714-.5783.4334-.1558.9117-.2487 1.6469-.3861.1937-.0361.3873-.0723.5811-.1085.2547-.0475.4731-.1079.6492-.3072.1775-.2008.1802-.4415.1802-.6838l.0001-6.1119c0-.4674-.2263-.5949-.7081-.5091-.3445.0622-7.7419 1.4441-7.7419 1.4441-.4173.0933-.5639.2197-.5639.6992l.0002 8.9555c0 .3511-.0198.6627-.0996 1.0144-.0774.3414-.2185.6624-.4362.9515-.2169.2883-.4951.5245-.8192.7017-.3281.1795-.6724.2868-1.0399.3554-.69.1289-1.1621.158-1.6057.0753-.4278-.0797-.7905-.267-1.0803-.5132-.4296-.365-.6799-.8579-.7384-1.3732-.0686-.6037.1309-1.2487.6205-1.7239.2469-.2397.5571-.4295.9713-.5783.4335-.1558.9118-.2487 1.6469-.3861.1937-.0361.3874-.0723.5811-.1085.2547-.0476.4732-.108.6492-.3073.1761-.1994.1964-.4383.1964-.6791 0-1.895 0-10.3135 0-10.3135 0-.139.013-.2315.0207-.278.0355-.2171.1296-.4032.2993-.5352.141-.1097.3225-.1853.5548-.231l.0034-.0007 8.8992-1.663c.0771-.0146.7204-.1204.7927-.1262.481-.0385.7511.254.7511.7289l.0003 13.0834c.0001.3511-.0038.6673-.0835 1.0191z" fill="#1d1d1f"/><path d="m0 0h32v54h-32z" fill="none"/></svg>