<svg height="54" viewBox="0 0 45 54" width="45" xmlns="http://www.w3.org/2000/svg"><path d="m0 0h45v54h-45z" fill="none"/><path d="m14.5 13h-9a5.5066 5.5066 0 0 0 -5.5 5.5v26a5.5069 5.5069 0 0 0 5.5 5.5h9a5.5069 5.5069 0 0 0 5.5-5.5v-26a5.5066 5.5066 0 0 0 -5.5-5.5zm3.5 31.5a3.5042 3.5042 0 0 1 -3.5 3.5h-9a3.5042 3.5042 0 0 1 -3.5-3.5v-26a3.5042 3.5042 0 0 1 3.5-3.5h9a3.5042 3.5042 0 0 1 3.5 3.5zm26-8h1v6h-1zm-12-23.5h6v1h-6zm12 15.5h1v6h-1zm-12 20.5h6v1h-6zm-6-14.5h-1v-6h1zm0-8h-1v-6h1zm0 16h-1v-6h1zm14-28.45v-1.0247a5.5056 5.5056 0 0 1 5 5.4747h-1a4.4847 4.4847 0 0 0 -4-4.45zm4 30.45h1a5.5056 5.5056 0 0 1 -5 5.4747v-1.0247a4.4847 4.4847 0 0 0 4-4.45zm-14-31.4747v1.0247a4.4847 4.4847 0 0 0 -4 4.45h-1a5.5056 5.5056 0 0 1 5-5.4747zm0 35.9247v1.0251a5.5056 5.5056 0 0 1 -5-5.4751h1a4.4847 4.4847 0 0 0 4 4.45zm14-28.45h1v6h-1z" fill="#1d1d1f"/></svg>